# xmcd CD database file
#
# Track frame offsets:
#	150
#	39807
#	64310
#	105601
#	141343
#	166275
#	196282
#	228984
#	266739
#	304336
#
# Disc length: 4329 seconds
#
# Revision: 0
# Processed by: cddbd v1.5.2PL0 Copyright (c) Steve Scherf et al.
# Submitted via: CDex 1.70beta2
#
DISCID=8a10e70a
DTITLE=Keith Jarrett - Solo Tribute - 100th performance disk1
DYEAR=1900
DGENRE=Jazz
TTITLE0=02 - The night we called it a day
TTITLE1=03 - I love you
TTITLE2=Things ain't what they used to be
TTITLE3=04 - Sound
TTITLE4=05 - I loves you Porgy
TTITLE5=06 - There is no greater love
TTITLE6=07 - Round about midnight
TTITLE7=08 - Solar
TTITLE8=09 - Then I'll be tired of you
TTITLE9=10 - Sweet and lovely
EXTD=
EXTT0=
EXTT1=
EXTT2=
EXTT3=
EXTT4=
EXTT5=
EXTT6=
EXTT7=
EXTT8=
EXTT9=
PLAYORDER=
